inDegrees=no
num_controls=7
num_derivatives=13
num_iterations=123
num_multipliers=7
num_parameters=0
num_slacks=7
num_states=26
objective=5.837795
objective_accelerations=0.653091
objective_balance=0.051458
objective_effort=0.515771
objective_height=4.514550
objective_ligament=0.102925
solver_duration=1383.670989
status=Solve_Succeeded
success=true
DataType=double
version=3
OpenSimVersion=4.4-2022-07-23-0e9fedc
endheader
time	/jointset/ground_pelvis/pelvis_tilt/value	/jointset/ground_pelvis/pelvis_tx/value	/jointset/ground_pelvis/pelvis_ty/value	/jointset/hip_l/hip_flexion_l/value	/jointset/hip_l/hip_adduction_l/value	/jointset/hip_l/hip_rotation_l/value	/jointset/back/lumbar_extension/value	/jointset/patellofemoral_l/patellar_flexion_l/value	/jointset/knee_l/knee_flexion_l/value	/jointset/knee_l/knee_adduction_l/value	/jointset/knee_l/knee_rotation_l/value	/jointset/ankle_l/ankle_angle_l/value	/jointset/subtalar_l/subtalar_angle_l/value	/jointset/ground_pelvis/pelvis_tilt/speed	/jointset/ground_pelvis/pelvis_tx/speed	/jointset/ground_pelvis/pelvis_ty/speed	/jointset/hip_l/hip_flexion_l/speed	/jointset/hip_l/hip_adduction_l/speed	/jointset/hip_l/hip_rotation_l/speed	/jointset/back/lumbar_extension/speed	/jointset/patellofemoral_l/patellar_flexion_l/speed	/jointset/knee_l/knee_flexion_l/speed	/jointset/knee_l/knee_adduction_l/speed	/jointset/knee_l/knee_rotation_l/speed	/jointset/ankle_l/ankle_angle_l/speed	/jointset/subtalar_l/subtalar_angle_l/speed	/forceset/tau_hip_flexion_l	/forceset/tau_hip_adduction_l	/forceset/tau_hip_rotation_l	/forceset/tau_knee_flexion_l	/forceset/tau_ankle_angle_l	/forceset/tau_subtalar_angle_l	/forceset/tau_lumbar_extension	lambda_cid13_p0	lambda_cid13_p1	lambda_cid13_p2	lambda_cid13_p3	lambda_cid13_p4	lambda_cid13_p5	lambda_cid14_p0	/jointset/ground_pelvis/pelvis_tilt/accel	/jointset/ground_pelvis/pelvis_tx/accel	/jointset/ground_pelvis/pelvis_ty/accel	/jointset/hip_l/hip_flexion_l/accel	/jointset/hip_l/hip_adduction_l/accel	/jointset/hip_l/hip_rotation_l/accel	/jointset/back/lumbar_extension/accel	/jointset/patellofemoral_l/patellar_flexion_l/accel	/jointset/knee_l/knee_flexion_l/accel	/jointset/knee_l/knee_adduction_l/accel	/jointset/knee_l/knee_rotation_l/accel	/jointset/ankle_l/ankle_angle_l/accel	/jointset/subtalar_l/subtalar_angle_l/accel	gamma_cid13_p0	gamma_cid13_p1	gamma_cid13_p2	gamma_cid13_p3	gamma_cid13_p4	gamma_cid13_p5	gamma_cid14_p0
0	-0.1579646209098266	0.05775570725609402	0.8979258469294271	0.3774920279260975	-0.2601888340991385	-0.2549015837522521	-0.0126506700172305	0.03223623128434462	0.03223623128433527	-0.1745297101664585	0.1572864694019857	-0.04231376238535053	-0.01052375416914842	0	0	0	0	0	0	0	0	0	0	0	0	0	0.1384102361440493	-0.04392133593212042	-0.04235207309229887	-0.2596601608542214	0.2223030289563626	-0.04942882824778756	-0.09132790664510941	28.54680894852521	10.14042127275362	5.209223396679551	27.83951623624336	-586.651191203289	-54.04960749865923	-38.54287526277365	-5.010102922814576	-2.947352292021889	-1.235247003357195	13.95233659148719	-1.019274456910602	2.521857804716856	-6.236939920562797	8.458758337197697	8.458758337196839	0.2060951269014641	0.322640724683267	-0.4426206768885989	-1.149188206641791	-2.840742375710067e-09	9.666043796422189e-08	2.435011432696974e-08	-9.87638134598339e-09	1.095422515210574e-07	5.310272064794591e-08	-1.553401725896223e-09
0.01	-0.1582073460655972	0.0576101542023145	0.8978653620221545	0.3781734184689131	-0.2602402227476107	-0.2547758524066765	-0.01296406703805956	0.03264966604696561	0.03264966604691377	-0.174522434181644	0.1572999465922355	-0.0423374807922674	-0.01058197877245781	-0.0483110619124598	-0.02896988095996846	-0.01205619774419213	0.1356448947413167	-0.01025154527742029	0.02504780768544497	-0.06228851839416582	0.08233056296916245	0.08233056296917936	0.001402925067432818	0.0026749459888579	-0.004708876635636397	-0.01160934272129802	0.1333626725456021	-0.0533074590323183	-0.04150606665971468	-0.2551966136184707	0.215808381274167	-0.03731816357299987	-0.08695347017558028	26.93093134134218	5.424517237220096	5.663137007053147	27.54758465167758	-587.5846085257321	-63.22227805579224	-38.55515848613361	-4.70651772487756	-2.850698500213461	-1.184666694366845	13.27558060967711	-1.02418009367317	2.481472025106378	-6.1661749301435	8.066747158666912	8.066747158671806	0.09956603944819421	0.236848095045064	-0.479799538521282	-1.161488703693903	-2.264561561556546e-08	1.088605170620145e-07	6.764074672044719e-08	4.812921883042792e-09	-1.24988615348549e-08	5.939099338988226e-08	-8.634132153874654e-09
0.02	-0.1589261638204474	0.05717912383849666	0.8976855430305678	0.3801922608977919	-0.2603933439548758	-0.2544025970291209	-0.01388862266911073	0.03387571481537088	0.03387571481537551	-0.1745026939772561	0.157339558554326	-0.04240724364185251	-0.01075523308274679	-0.0952185198009597	-0.05709546200766293	-0.02386681686285751	0.2674903772521028	-0.02034651177522858	0.04950480635674526	-0.1222317220401715	0.1625228012139437	0.1625228012139427	0.002492843846114074	0.005226954339999988	-0.009208888536073944	-0.02300594139542351	0.128315108944737	-0.06269358213345559	-0.04066006022669314	-0.2507330663849305	0.2093137335908231	-0.0252074988993965	-0.0825790337070281	25.39014284222351	0.6961064726773116	6.118314229407416	27.21232394748515	-587.3129453727997	-72.30565817021231	-38.59142135531312	-4.729382118022821	-2.778492309565778	-1.186131278251618	13.19245414537974	-0.9879587009871635	2.403696001888028	-5.767876970929975	8.031093392321527	8.031093392313705	0.1434938691532577	0.2980531971400124	-0.4008477298467484	-1.106639397205755	-4.245048885542085e-08	1.210605961598072e-07	1.109313791139246e-07	1.950222511206897e-08	-1.345399745907671e-07	6.56792661318186e-08	-1.571486258185309e-08
0.03	-0.160107372602681	0.05647124297360693	0.8973885965965501	0.3835109593493061	-0.2606462081113734	-0.253787881921063	-0.01539989755858103	0.03589321949669327	0.03589321949656943	-0.1744729655269845	0.1574042352961252	-0.04252060247481006	-0.01104089131159367	-0.1407801792946559	-0.0843189181803249	-0.03550002092132368	0.3955930990218075	-0.03017142415834973	0.07332855903896617	-0.1795771722606722	0.2406258758689984	0.2406258758689083	0.003437225987231883	0.007695626009321176	-0.01339665267369812	-0.03405477756918137	0.1222026398106238	-0.05826216489824835	-0.03991459829155011	-0.2461540727049696	0.2064240200142653	-0.02701500688316165	-0.07738594285607854	24.46796920787978	1.549604102821053	6.088435676351798	26.57941106887815	-586.9379246398602	-69.71917328480174	-38.6505379653554	-4.43310481272592	-2.669999388172748	-1.148575017367313	12.52074086302423	-0.9715375840219566	2.35525037536893	-5.650966506131438	7.647078797217362	7.647078797210473	0.06759265719822982	0.2193443691617711	-0.4178070338637109	-1.093398288429619	-5.655857767792306e-08	1.297488543372332e-07	1.328288528404598e-07	3.227832314399569e-08	-2.283405741782853e-07	6.756185788883699e-08	-1.893925973759791e-08
0.04	-0.1617369073695127	0.05549598212358327	0.896975986112418	0.3880909969525572	-0.260995677407078	-0.2529382221913932	-0.01747124444194205	0.03868118778354906	0.03868118778356287	-0.1744342568015894	0.1574932127982038	-0.04267385220478283	-0.01143491641437503	-0.1848837166955338	-0.1105714590344476	-0.04699962688575083	0.5197582076020524	-0.03966753962340942	0.09649373068034862	-0.2342461208218734	0.3166155223288752	0.3166155223287236	0.004288898952603435	0.01008710637197207	-0.01718706793701368	-0.04467931618169779	0.1160901706774583	-0.05383074766312894	-0.0391691363554315	-0.2415750790246158	0.2035343064378303	-0.02882251486699681	-0.07219285200455147	23.61336108463918	2.392160133557899	6.059287789724514	25.90139011965085	-585.4917028143209	-67.04821604901159	-38.73123695124497	-4.437757699460212	-2.584309245856254	-1.159411659443624	12.40493150748608	-0.9221993173744638	2.271979793720457	-5.232576639069574	7.608407753286021	7.608407753283704	0.1249520340048337	0.2826149358059145	-0.3213779549826909	-1.021779884956511	-7.05492070279025e-08	1.383647038358888e-07	1.542852305120065e-07	4.501497364608532e-08	-3.215588951375891e-07	6.93536108626612e-08	-2.208414486711112e-08
